<svg id="svg" version="1.1" xmlns="http://www.w3.org/2000/svg" xmlns:xlink="http://www.w3.org/1999/xlink" width="400" height="400" viewBox="0, 0, 400,400">
<g id="svgg"><path d="M125.333 14.311 C 124.279 14.750,122.929 15.305,122.333 15.544 C 120.659 16.216,117.316 17.738,114.833 18.959 C 113.596 19.568,112.358 20.149,112.083 20.252 C 111.808 20.354,110.652 20.940,109.513 21.553 C 108.374 22.165,107.370 22.667,107.281 22.667 C 107.192 22.667,106.211 23.183,105.101 23.813 C 103.991 24.444,102.446 25.312,101.667 25.743 C 98.879 27.284,96.100 28.951,96.045 29.114 C 96.015 29.205,96.166 29.659,96.381 30.124 C 98.693 35.114,99.049 42.051,97.320 48.453 C 96.595 51.137,92.985 57.613,90.512 60.667 C 90.326 60.896,90.172 61.171,90.170 61.279 C 90.168 61.386,89.890 61.836,89.552 62.279 C 89.214 62.721,88.380 63.946,87.699 65.000 C 87.018 66.054,86.170 67.299,85.814 67.765 C 85.458 68.232,85.167 68.695,85.167 68.794 C 85.167 68.893,84.890 69.336,84.552 69.779 C 84.214 70.221,83.380 71.446,82.699 72.500 C 82.018 73.554,81.170 74.799,80.814 75.265 C 80.458 75.732,80.167 76.173,80.167 76.244 C 80.167 76.316,79.822 76.858,79.400 77.449 C 78.278 79.021,75.167 83.700,75.166 83.817 C 75.166 83.872,74.883 84.292,74.537 84.750 C 74.192 85.208,73.592 86.071,73.205 86.667 C 72.817 87.263,72.152 88.266,71.726 88.897 L 70.952 90.044 70.650 89.647 C 70.484 89.429,70.252 89.063,70.134 88.833 C 69.816 88.216,67.781 85.259,67.630 85.194 C 67.559 85.164,67.500 85.042,67.500 84.923 C 67.500 84.804,66.938 83.918,66.250 82.955 C 65.563 81.991,65.000 81.157,65.000 81.101 C 65.000 81.002,62.852 77.830,62.674 77.667 C 62.624 77.621,62.449 77.321,62.286 77.000 C 62.122 76.679,61.542 75.817,60.997 75.083 C 60.453 74.350,60.005 73.694,60.003 73.625 C 60.000 73.508,57.872 70.349,57.674 70.167 C 57.624 70.121,57.449 69.821,57.286 69.500 C 57.122 69.179,56.542 68.317,55.997 67.583 C 55.453 66.850,55.005 66.173,55.003 66.079 C 54.998 65.792,53.643 64.083,53.421 64.083 C 53.307 64.083,52.558 64.796,51.757 65.667 C 48.707 68.984,43.374 75.300,42.407 76.741 C 42.165 77.102,41.734 77.644,41.451 77.944 C 41.167 78.245,40.726 78.812,40.471 79.204 C 40.215 79.596,39.947 79.992,39.874 80.083 C 39.221 80.906,38.075 82.459,37.413 83.417 C 36.970 84.058,36.363 84.872,36.064 85.226 C 35.766 85.579,35.402 86.119,35.257 86.426 C 35.111 86.733,34.819 87.194,34.607 87.450 C 34.083 88.085,30.361 93.733,30.217 94.113 C 30.153 94.280,29.748 94.942,29.317 95.583 C 28.886 96.225,28.143 97.462,27.665 98.333 C 27.188 99.204,26.698 100.029,26.578 100.167 C 26.458 100.304,25.855 101.392,25.238 102.583 C 24.622 103.775,23.988 104.938,23.831 105.167 C 23.579 105.535,22.927 106.792,20.766 111.083 C 19.273 114.046,18.229 116.230,17.497 117.917 C 17.059 118.925,16.395 120.442,16.020 121.288 C 15.645 122.134,15.194 123.221,15.016 123.704 C 14.839 124.188,14.279 125.567,13.772 126.770 C 13.265 127.973,12.800 129.173,12.739 129.437 C 12.677 129.701,12.309 130.742,11.920 131.750 C 11.178 133.673,10.894 134.507,9.000 140.333 C 7.399 145.257,7.284 145.986,8.105 145.997 C 8.208 145.999,10.345 146.301,12.855 146.670 C 15.364 147.038,18.167 147.409,19.083 147.493 C 20.000 147.578,24.372 148.176,28.799 148.823 C 33.226 149.470,37.215 150.000,37.664 150.000 C 38.591 150.000,38.076 149.506,42.264 154.417 C 43.514 155.883,44.677 157.233,44.847 157.417 C 45.429 158.043,47.249 160.188,47.716 160.797 C 47.973 161.131,48.629 161.870,49.175 162.438 C 49.720 163.006,50.167 163.540,50.167 163.623 C 50.167 163.707,50.568 164.182,51.058 164.679 C 51.547 165.176,52.223 165.945,52.558 166.388 C 52.893 166.831,53.405 167.431,53.696 167.721 C 53.987 168.012,54.512 168.613,54.862 169.057 C 55.213 169.500,55.856 170.260,56.292 170.744 L 57.083 171.625 62.833 170.823 C 65.996 170.382,71.921 169.561,76.000 168.999 C 80.079 168.437,83.548 167.940,83.708 167.894 C 83.982 167.816,84.000 167.200,84.000 157.986 L 84.000 148.161 83.375 147.889 C 82.694 147.591,81.691 147.097,79.494 145.976 C 78.711 145.577,77.886 145.170,77.660 145.072 C 77.171 144.860,73.066 142.814,72.000 142.252 L 71.250 141.856 71.207 132.261 L 71.164 122.667 87.290 122.663 C 105.649 122.659,103.405 122.847,106.250 121.072 C 107.075 120.557,107.925 120.067,108.140 119.983 C 108.354 119.899,109.029 119.508,109.640 119.113 C 110.250 118.719,111.537 117.956,112.500 117.417 C 113.462 116.878,114.751 116.114,115.363 115.718 C 115.974 115.323,116.537 114.998,116.613 114.995 C 116.688 114.992,117.462 114.541,118.333 113.994 C 119.204 113.446,120.254 112.838,120.667 112.643 C 121.079 112.448,121.792 112.047,122.250 111.752 C 123.194 111.145,124.722 110.258,125.833 109.673 C 126.246 109.456,126.883 109.075,127.250 108.827 C 127.617 108.579,128.704 107.942,129.667 107.412 C 130.629 106.882,131.904 106.133,132.500 105.747 C 133.096 105.362,133.733 104.998,133.917 104.939 C 134.100 104.879,134.587 104.525,135.000 104.152 C 135.901 103.336,139.853 100.600,141.057 99.959 C 142.096 99.405,142.500 98.950,142.500 98.333 C 142.500 98.078,143.063 95.573,143.750 92.767 C 144.438 89.960,145.000 87.508,145.000 87.317 C 145.000 87.127,145.481 85.009,146.069 82.611 C 146.656 80.212,147.228 77.762,147.339 77.167 C 147.449 76.571,148.094 73.758,148.770 70.917 C 149.447 68.075,150.001 65.544,150.000 65.293 L 150.000 64.835 165.375 64.793 L 180.750 64.750 180.750 51.676 L 180.750 38.601 178.250 38.142 C 176.875 37.889,175.525 37.682,175.250 37.680 C 174.975 37.679,171.487 37.116,167.500 36.430 C 156.642 34.561,145.594 32.711,144.027 32.499 C 143.262 32.396,142.499 32.260,142.331 32.197 C 142.042 32.089,140.000 29.785,140.000 29.566 C 140.000 29.454,138.912 28.124,138.042 27.174 C 137.745 26.849,137.501 26.508,137.500 26.417 C 137.499 26.325,137.043 25.725,136.485 25.083 C 135.928 24.442,135.272 23.637,135.028 23.295 C 134.783 22.952,133.646 21.504,132.500 20.076 C 131.354 18.648,130.243 17.240,130.031 16.948 C 129.819 16.656,129.202 15.892,128.659 15.250 C 128.116 14.608,127.577 13.955,127.461 13.798 C 127.266 13.534,127.103 13.574,125.333 14.311 M275.583 16.999 C 273.933 17.343,271.683 17.794,270.583 18.000 C 269.483 18.207,266.708 18.779,264.417 19.271 C 262.125 19.764,260.100 20.166,259.917 20.165 C 259.733 20.164,256.846 20.724,253.500 21.409 C 242.387 23.686,235.098 25.142,233.810 25.342 C 233.110 25.452,232.449 25.595,232.341 25.662 C 232.145 25.783,230.167 32.965,230.167 33.555 C 230.167 33.726,229.604 35.942,228.917 38.478 C 228.229 41.015,227.667 43.222,227.667 43.382 C 227.667 43.543,227.217 45.364,226.667 47.430 C 226.117 49.496,225.667 51.324,225.667 51.492 C 225.667 51.846,225.764 51.874,228.250 52.244 C 229.258 52.394,233.346 53.077,237.333 53.761 C 241.321 54.445,244.738 55.004,244.927 55.003 C 245.116 55.001,247.629 55.418,250.511 55.929 C 255.682 56.846,257.200 57.099,262.058 57.849 L 264.533 58.231 265.641 57.878 C 266.251 57.684,267.237 57.372,267.833 57.185 C 268.429 56.997,269.779 56.538,270.833 56.164 C 271.887 55.790,273.125 55.369,273.583 55.228 C 274.042 55.087,276.029 54.426,278.000 53.760 C 279.971 53.094,282.071 52.402,282.667 52.222 L 283.750 51.896 284.333 52.288 C 284.654 52.504,284.992 52.774,285.083 52.890 C 285.234 53.080,292.204 59.060,293.650 60.240 C 293.980 60.509,294.676 61.128,295.196 61.615 C 295.716 62.102,296.204 62.501,296.279 62.502 C 296.355 62.504,297.017 63.066,297.750 63.752 C 298.483 64.438,299.163 64.999,299.260 64.999 C 299.358 65.000,299.658 65.234,299.927 65.521 C 300.196 65.807,300.867 66.413,301.417 66.866 C 301.967 67.320,302.867 68.090,303.417 68.578 C 303.967 69.065,305.014 69.960,305.744 70.565 L 307.072 71.667 330.119 71.667 C 349.605 71.667,353.167 71.631,353.167 71.437 C 353.167 71.164,351.666 69.393,347.554 64.812 C 345.707 62.755,339.796 56.763,337.077 54.192 C 333.472 50.784,325.718 44.120,323.762 42.750 C 323.370 42.475,322.731 41.963,322.342 41.612 C 321.954 41.261,321.324 40.772,320.943 40.526 C 320.562 40.280,319.495 39.517,318.572 38.831 C 315.279 36.383,314.623 35.910,313.775 35.373 C 313.303 35.074,312.770 34.705,312.590 34.553 C 312.411 34.402,311.398 33.720,310.340 33.038 C 309.282 32.357,307.924 31.467,307.323 31.060 C 306.721 30.654,305.991 30.193,305.701 30.036 C 305.411 29.879,304.441 29.299,303.545 28.748 C 302.649 28.196,301.654 27.605,301.333 27.433 C 301.012 27.261,300.375 26.880,299.917 26.585 C 299.458 26.291,298.183 25.579,297.083 25.004 C 295.983 24.429,294.896 23.829,294.667 23.672 C 294.438 23.515,293.350 22.931,292.250 22.373 C 291.150 21.816,289.725 21.094,289.083 20.770 C 284.158 18.277,279.741 16.327,279.081 16.353 C 278.807 16.364,277.233 16.655,275.583 16.999 M241.250 86.430 C 240.425 86.929,239.418 87.489,239.012 87.675 C 238.606 87.861,237.465 88.498,236.476 89.090 C 235.488 89.682,234.620 90.167,234.548 90.167 C 234.476 90.167,233.779 90.551,233.000 91.020 C 232.221 91.490,230.796 92.286,229.833 92.791 C 228.871 93.295,227.971 93.802,227.833 93.918 C 227.696 94.034,226.571 94.671,225.333 95.333 C 224.096 95.996,222.971 96.629,222.833 96.740 C 222.457 97.045,221.335 97.667,221.161 97.667 C 221.077 97.667,220.086 98.210,218.959 98.875 C 217.832 99.540,216.484 100.297,215.964 100.557 L 215.018 101.031 215.099 102.474 C 215.143 103.267,215.208 104.152,215.243 104.440 C 215.319 105.064,215.018 105.167,213.113 105.167 C 210.399 105.167,206.496 105.804,205.500 106.409 C 204.996 106.715,203.946 107.302,203.167 107.713 C 202.387 108.123,201.375 108.682,200.917 108.954 L 200.083 109.448 200.123 110.849 C 200.145 111.620,200.722 116.075,201.405 120.750 C 202.088 125.425,202.804 130.450,202.995 131.917 C 203.187 133.383,203.747 137.358,204.239 140.750 C 204.731 144.142,205.371 148.679,205.662 150.833 L 206.191 154.750 207.137 155.633 C 207.658 156.119,208.528 156.854,209.071 157.266 C 209.614 157.678,210.139 158.123,210.237 158.253 C 210.336 158.383,210.912 158.886,211.517 159.370 C 213.528 160.979,219.237 165.716,220.096 166.489 C 220.561 166.907,221.349 167.568,221.846 167.957 C 223.117 168.951,224.498 170.096,225.069 170.629 C 225.337 170.879,226.019 171.458,226.586 171.917 C 229.272 174.088,234.329 178.292,235.000 178.912 C 236.610 180.398,236.751 180.460,239.016 180.665 C 241.541 180.893,245.177 181.392,246.750 181.726 C 247.392 181.863,248.517 182.098,249.250 182.250 C 251.331 182.680,252.302 182.927,253.871 183.425 L 255.326 183.887 257.788 183.089 C 259.142 182.650,261.750 181.785,263.583 181.167 C 265.417 180.549,267.517 179.855,268.250 179.624 C 268.983 179.392,270.746 178.809,272.167 178.327 C 278.266 176.259,281.978 175.016,282.833 174.757 L 283.750 174.479 284.458 175.276 C 284.848 175.715,285.167 176.155,285.167 176.253 C 285.167 176.351,285.544 176.878,286.006 177.424 C 286.468 177.970,287.049 178.716,287.298 179.082 C 287.547 179.448,288.237 180.374,288.833 181.140 C 289.429 181.905,289.992 182.655,290.083 182.804 C 290.323 183.196,291.569 184.816,292.157 185.500 C 292.432 185.821,292.660 186.164,292.662 186.262 C 292.665 186.360,292.916 186.735,293.221 187.095 C 293.526 187.455,294.530 188.772,295.453 190.021 C 296.377 191.270,297.213 192.342,297.311 192.403 C 297.410 192.464,297.606 192.755,297.747 193.049 C 297.887 193.343,298.388 194.033,298.859 194.583 C 299.330 195.133,299.899 195.874,300.123 196.230 C 300.348 196.586,300.852 197.270,301.243 197.750 C 301.634 198.231,302.186 198.960,302.469 199.372 L 302.984 200.120 300.802 204.435 C 292.013 221.817,290.796 224.340,290.979 224.803 C 293.798 231.940,293.608 246.345,290.574 255.477 L 290.167 256.705 290.167 264.155 L 290.167 271.605 291.208 272.083 C 291.781 272.346,293.375 273.109,294.750 273.778 C 296.125 274.447,298.750 275.715,300.583 276.597 C 302.417 277.479,304.967 278.711,306.250 279.336 C 307.533 279.962,309.708 281.013,311.083 281.673 C 312.458 282.332,314.127 283.136,314.792 283.459 L 316.000 284.046 316.000 300.179 L 316.000 316.313 317.708 317.432 C 318.648 318.048,319.829 318.869,320.333 319.258 C 320.837 319.646,321.400 320.009,321.583 320.064 C 321.767 320.118,322.120 320.352,322.369 320.583 C 322.618 320.814,323.893 321.725,325.202 322.609 C 326.512 323.492,327.733 324.341,327.917 324.496 C 328.100 324.651,328.601 324.978,329.030 325.222 C 329.459 325.467,329.909 325.764,330.030 325.882 C 330.406 326.249,332.213 327.500,332.367 327.500 C 332.448 327.500,332.671 327.646,332.863 327.825 C 333.173 328.114,336.404 330.341,338.975 332.038 C 339.493 332.380,339.992 332.718,340.083 332.790 C 340.705 333.276,343.193 335.000,343.273 335.000 C 343.392 335.000,344.952 336.126,345.406 336.539 C 345.893 336.982,346.071 336.911,346.859 335.961 C 347.258 335.482,347.741 334.938,347.935 334.753 C 348.836 333.889,354.038 327.867,355.417 326.091 C 355.783 325.619,356.286 325.010,356.534 324.739 C 356.781 324.468,357.269 323.858,357.617 323.384 C 357.965 322.909,358.625 322.029,359.083 321.427 C 359.542 320.825,360.444 319.639,361.089 318.791 C 361.733 317.944,362.422 316.987,362.620 316.667 C 362.818 316.346,363.434 315.483,363.989 314.750 C 364.544 314.017,364.999 313.337,364.999 313.240 C 365.000 313.142,365.134 312.917,365.297 312.740 C 365.650 312.356,367.500 309.679,367.500 309.552 C 367.500 309.504,367.992 308.759,368.592 307.898 C 369.193 307.036,369.797 306.088,369.935 305.790 C 370.073 305.493,370.633 304.575,371.180 303.750 C 371.726 302.925,372.321 301.928,372.501 301.534 C 372.681 301.140,373.062 300.477,373.348 300.062 C 375.774 296.536,382.112 283.552,385.744 274.667 C 386.175 273.612,386.631 272.521,386.757 272.240 C 386.882 271.960,387.319 270.760,387.727 269.574 C 388.135 268.387,388.779 266.592,389.159 265.583 C 389.539 264.575,389.915 263.450,389.994 263.083 C 390.073 262.717,390.630 260.964,391.231 259.189 C 391.832 257.414,392.398 255.576,392.490 255.106 C 392.581 254.635,392.958 253.162,393.327 251.833 C 393.982 249.473,394.711 246.513,395.254 244.000 C 395.403 243.313,395.810 241.438,396.159 239.833 C 397.397 234.137,398.838 224.178,399.618 215.917 C 400.116 210.641,400.060 188.547,399.535 183.197 C 399.086 178.615,398.496 173.922,397.919 170.333 C 397.690 168.912,397.502 167.523,397.501 167.245 C 397.500 166.663,396.386 160.959,395.745 158.250 C 395.507 157.242,395.205 155.831,395.074 155.115 C 394.768 153.433,394.398 151.974,392.996 146.917 C 392.742 146.000,392.482 144.950,392.419 144.583 C 392.355 144.217,391.785 142.354,391.152 140.444 C 390.518 138.535,390.000 136.871,390.000 136.747 C 390.000 136.529,389.555 135.295,388.409 132.333 C 388.107 131.554,387.678 130.354,387.455 129.667 C 387.232 128.979,386.597 127.329,386.043 126.000 C 385.490 124.671,384.773 122.946,384.449 122.167 C 383.460 119.784,382.368 117.360,381.204 114.958 C 379.898 112.265,380.048 112.334,377.793 113.386 C 376.323 114.071,374.854 114.699,372.833 115.506 C 372.329 115.708,371.031 116.276,369.949 116.770 C 368.867 117.263,367.912 117.667,367.826 117.667 C 367.741 117.667,366.429 118.229,364.911 118.917 C 363.394 119.604,362.079 120.167,361.990 120.167 C 361.900 120.167,360.595 120.729,359.089 121.417 C 357.583 122.104,356.292 122.667,356.220 122.667 C 355.870 122.667,353.174 123.941,353.170 124.108 C 353.168 124.213,353.374 124.701,353.628 125.191 C 354.773 127.407,355.525 129.802,356.159 133.250 C 357.253 139.198,355.313 147.871,351.836 152.583 C 351.025 153.682,348.397 157.640,347.696 158.819 C 347.392 159.331,347.006 159.900,346.840 160.083 C 346.485 160.474,343.502 164.963,342.696 166.318 C 342.392 166.831,342.006 167.400,341.838 167.583 C 341.671 167.767,340.955 168.817,340.248 169.917 C 339.540 171.017,338.670 172.299,338.314 172.765 C 337.958 173.232,337.667 173.695,337.667 173.794 C 337.667 173.893,337.390 174.336,337.052 174.779 C 336.714 175.221,335.880 176.446,335.199 177.500 C 334.518 178.554,333.670 179.799,333.314 180.265 C 332.958 180.732,332.667 181.191,332.667 181.284 C 332.667 181.378,332.310 181.938,331.875 182.528 C 331.440 183.118,330.638 184.291,330.094 185.134 C 328.975 186.869,328.983 186.864,328.521 186.118 C 328.334 185.816,328.028 185.392,327.841 185.175 C 327.653 184.959,327.496 184.700,327.492 184.599 C 327.487 184.499,327.186 184.004,326.822 183.500 C 326.458 182.996,325.885 182.171,325.549 181.667 C 323.432 178.491,322.908 177.726,322.716 177.530 C 322.597 177.409,322.496 177.221,322.492 177.113 C 322.487 177.005,322.186 176.504,321.822 176.000 C 321.458 175.496,320.885 174.671,320.549 174.167 C 318.432 170.991,317.908 170.226,317.716 170.030 C 317.597 169.909,317.496 169.721,317.492 169.613 C 317.487 169.505,317.186 169.004,316.822 168.500 C 316.086 167.480,315.360 166.407,314.056 164.408 C 313.574 163.671,313.027 162.890,312.840 162.675 C 312.653 162.459,312.500 162.225,312.500 162.155 C 312.500 162.086,311.431 160.440,310.125 158.499 C 308.819 156.557,307.645 154.770,307.516 154.526 C 307.388 154.283,306.850 153.483,306.322 152.750 C 300.943 145.287,300.070 134.264,304.179 125.682 C 305.295 123.351,305.456 123.064,306.202 122.084 C 307.103 120.900,307.039 120.805,305.082 120.437 C 304.166 120.264,300.895 119.571,297.813 118.895 C 294.731 118.219,292.051 117.667,291.857 117.667 C 291.663 117.667,289.845 117.292,287.817 116.833 C 285.789 116.375,284.104 116.000,284.073 116.000 C 283.981 116.000,282.559 113.938,282.463 113.666 C 282.415 113.528,281.841 112.642,281.188 111.697 C 280.534 110.752,280.000 109.921,280.000 109.850 C 280.000 109.779,279.473 108.959,278.828 108.027 C 278.183 107.096,277.601 106.202,277.535 106.042 C 277.378 105.666,275.498 102.819,275.216 102.530 C 275.097 102.409,275.000 102.240,275.000 102.155 C 275.000 102.070,274.456 101.177,273.792 100.171 C 273.127 99.165,271.983 97.395,271.250 96.237 C 270.517 95.079,269.373 93.319,268.708 92.325 C 268.044 91.331,267.500 90.479,267.500 90.431 C 267.500 90.297,265.990 87.973,265.575 87.470 C 265.373 87.224,265.042 86.680,264.839 86.261 L 264.470 85.500 253.610 85.512 L 242.750 85.524 241.250 86.430 M107.972 168.482 C 107.554 168.747,106.471 169.357,105.564 169.839 C 104.658 170.320,103.392 171.029,102.750 171.414 C 102.108 171.800,100.758 172.546,99.750 173.073 C 98.742 173.599,97.804 174.127,97.667 174.245 C 97.529 174.364,96.814 174.759,96.078 175.123 C 95.342 175.487,94.179 176.124,93.495 176.537 C 92.810 176.950,91.875 177.473,91.417 177.700 C 90.111 178.344,87.513 179.843,87.409 180.013 C 87.356 180.098,87.193 180.167,87.046 180.167 C 86.899 180.167,86.247 180.496,85.597 180.899 C 84.948 181.302,83.667 182.026,82.750 182.508 C 81.833 182.990,80.434 183.767,79.641 184.234 C 78.249 185.054,76.188 186.200,74.203 187.258 C 73.679 187.538,72.612 188.133,71.833 188.581 C 71.054 189.028,69.892 189.670,69.250 190.007 C 67.278 191.041,65.008 192.352,64.909 192.513 C 64.856 192.598,64.695 192.667,64.550 192.667 C 64.404 192.667,63.677 193.032,62.934 193.479 C 62.191 193.925,60.758 194.722,59.750 195.249 C 58.742 195.776,57.804 196.302,57.667 196.418 C 57.529 196.534,56.479 197.132,55.333 197.747 C 54.188 198.363,52.858 199.102,52.379 199.391 L 51.508 199.917 51.546 217.892 L 51.583 235.867 52.417 236.193 C 54.075 236.841,55.594 237.386,56.083 237.508 C 56.358 237.577,57.483 237.984,58.583 238.414 C 59.683 238.844,61.146 239.383,61.833 239.612 C 62.521 239.842,64.583 240.575,66.417 241.243 C 68.250 241.910,70.085 242.566,70.494 242.700 C 71.340 242.977,71.353 243.004,72.229 246.667 C 72.482 247.721,73.239 250.758,73.913 253.417 C 74.587 256.075,75.183 258.512,75.238 258.833 C 75.292 259.154,75.851 261.404,76.480 263.833 C 77.108 266.262,77.801 269.000,78.019 269.917 L 78.417 271.583 80.417 272.064 C 81.517 272.329,83.879 272.919,85.667 273.376 C 87.454 273.834,89.704 274.394,90.667 274.621 C 91.629 274.848,94.534 275.589,97.121 276.267 C 99.709 276.945,101.996 277.503,102.204 277.506 C 102.413 277.509,103.585 277.791,104.809 278.131 L 107.035 278.750 107.350 279.583 C 107.524 280.042,107.666 280.508,107.667 280.620 C 107.667 280.731,108.214 282.419,108.884 284.370 C 109.553 286.321,110.408 288.854,110.783 290.000 C 111.158 291.146,111.730 292.871,112.055 293.833 C 112.380 294.796,112.966 296.571,113.357 297.777 L 114.068 299.971 113.368 300.970 C 112.982 301.520,112.667 302.046,112.667 302.140 C 112.667 302.233,112.567 302.409,112.445 302.532 C 112.323 302.654,111.524 303.803,110.670 305.085 C 109.817 306.367,108.985 307.567,108.822 307.750 C 108.659 307.933,108.239 308.540,107.888 309.098 C 107.013 310.490,104.401 314.350,103.449 315.658 C 103.019 316.250,102.667 316.817,102.667 316.919 C 102.667 317.020,102.529 317.252,102.360 317.433 C 102.192 317.614,101.430 318.696,100.667 319.839 C 99.904 320.982,98.917 322.413,98.473 323.020 C 98.030 323.627,97.667 324.198,97.667 324.289 C 97.667 324.380,97.434 324.746,97.149 325.102 C 96.864 325.458,95.990 326.725,95.208 327.917 C 94.425 329.108,93.728 330.121,93.659 330.167 C 93.590 330.212,93.170 330.824,92.725 331.526 C 92.281 332.229,91.523 333.369,91.042 334.061 C 89.968 335.603,89.932 335.042,91.393 339.500 C 92.068 341.563,93.200 345.087,93.908 347.333 C 94.616 349.579,95.743 353.142,96.414 355.250 C 97.085 357.358,98.198 360.883,98.889 363.083 C 99.579 365.283,100.711 368.846,101.404 371.000 L 102.663 374.917 103.707 375.477 C 106.297 376.868,112.331 380.000,112.420 380.000 C 112.474 380.000,113.658 380.553,115.051 381.228 C 116.444 381.904,117.766 382.513,117.989 382.583 C 118.212 382.652,119.075 383.027,119.906 383.415 C 122.432 384.597,123.364 385.000,123.570 385.000 C 123.677 385.000,124.808 385.452,126.082 386.005 C 127.356 386.558,128.477 386.980,128.574 386.943 C 128.739 386.879,129.285 385.432,130.470 381.917 C 130.748 381.092,131.308 379.479,131.716 378.333 C 132.124 377.188,132.724 375.462,133.050 374.500 C 133.376 373.537,133.934 371.925,134.290 370.917 C 135.370 367.855,136.855 363.577,139.354 356.333 C 141.580 349.880,142.044 348.668,142.388 348.417 C 142.533 348.311,143.199 348.049,143.868 347.835 C 144.536 347.621,146.133 347.070,147.417 346.610 C 149.673 345.803,153.037 344.632,158.250 342.843 C 159.625 342.371,161.950 341.549,163.417 341.017 C 164.883 340.485,166.871 339.780,167.833 339.450 C 168.796 339.119,170.296 338.578,171.167 338.246 C 172.037 337.915,173.012 337.576,173.333 337.493 C 173.904 337.345,176.254 336.507,177.917 335.859 L 178.750 335.533 178.793 324.486 L 178.836 313.438 178.436 312.677 C 177.939 311.731,177.481 310.832,177.323 310.489 C 177.257 310.346,176.353 308.583,175.315 306.573 C 174.276 304.562,172.842 301.754,172.127 300.333 C 171.412 298.912,170.645 297.452,170.423 297.088 C 169.917 296.260,169.534 296.397,173.682 295.922 C 175.644 295.697,177.813 295.431,178.500 295.332 C 179.188 295.232,180.537 295.081,181.500 294.995 C 183.166 294.846,186.170 294.375,190.000 293.661 C 190.963 293.481,192.800 293.143,194.083 292.909 C 199.384 291.942,200.223 291.767,203.333 290.977 C 205.121 290.524,206.958 290.080,207.417 289.991 C 210.120 289.468,213.568 288.125,214.213 287.345 C 215.444 285.854,216.337 284.740,216.873 284.025 C 217.172 283.626,217.686 282.989,218.016 282.608 C 218.345 282.228,219.764 280.454,221.169 278.667 C 222.573 276.879,223.977 275.117,224.287 274.750 C 225.294 273.561,226.568 271.984,227.250 271.083 C 227.617 270.598,228.948 268.919,230.208 267.352 L 232.500 264.502 232.500 250.105 C 232.500 238.789,232.455 235.671,232.292 235.537 C 232.177 235.443,231.746 235.276,231.333 235.167 C 230.921 235.057,230.283 234.835,229.917 234.673 C 228.806 234.182,224.879 232.667,224.717 232.667 C 224.633 232.667,223.186 232.104,221.500 231.417 C 219.814 230.729,218.356 230.166,218.259 230.165 C 218.162 230.164,217.333 229.857,216.417 229.482 C 213.140 228.143,211.916 227.667,211.751 227.667 C 211.659 227.668,210.455 227.204,209.077 226.637 C 206.427 225.546,206.083 225.285,205.087 223.605 C 204.902 223.293,204.300 222.421,203.750 221.667 C 203.200 220.913,202.618 220.075,202.456 219.805 C 202.294 219.534,201.844 218.899,201.456 218.394 C 201.068 217.889,200.450 217.010,200.083 216.440 C 199.717 215.871,199.000 214.846,198.491 214.161 C 197.981 213.477,197.401 212.654,197.202 212.333 C 197.003 212.012,196.779 211.660,196.706 211.549 C 196.567 211.339,196.771 211.321,189.583 212.176 C 178.126 213.538,162.876 213.066,154.250 211.083 C 153.333 210.873,152.021 210.575,151.333 210.422 C 149.230 209.954,146.668 209.175,144.917 208.472 C 144.000 208.103,142.912 207.688,142.500 207.549 C 141.344 207.159,136.394 204.571,135.041 203.648 C 134.376 203.195,133.663 202.759,133.457 202.679 C 133.252 202.599,132.626 202.169,132.067 201.725 C 131.508 201.280,130.383 200.392,129.567 199.751 C 128.751 199.110,127.671 198.202,127.167 197.733 C 126.662 197.264,126.015 196.663,125.727 196.398 C 124.182 194.976,120.802 190.971,119.352 188.844 C 118.941 188.242,118.518 187.675,118.412 187.583 C 118.093 187.309,117.500 186.381,117.500 186.157 C 117.500 186.042,117.294 185.680,117.042 185.351 C 116.310 184.399,115.280 182.675,114.693 181.420 C 114.394 180.781,114.090 180.219,114.018 180.171 C 113.854 180.062,112.500 177.460,112.500 177.254 C 112.500 177.171,112.081 176.199,111.569 175.094 C 110.363 172.489,110.225 172.166,110.099 171.667 C 109.872 170.763,108.911 168.000,108.824 168.000 C 108.773 168.000,108.390 168.217,107.972 168.482 M159.312 219.920 C 161.499 220.205,163.579 220.829,165.896 221.896 C 166.618 222.228,167.268 222.500,167.341 222.500 C 167.485 222.500,169.243 223.608,171.097 224.866 C 173.092 226.220,176.648 229.939,177.645 231.714 C 177.862 232.100,178.170 232.604,178.330 232.833 C 181.385 237.214,183.018 245.303,182.023 251.123 C 181.496 254.206,179.947 258.621,178.766 260.407 C 178.459 260.871,178.066 261.512,177.892 261.833 C 177.719 262.154,177.092 263.129,176.500 264.000 C 175.908 264.871,175.193 265.958,174.912 266.417 C 174.630 266.875,174.092 267.654,173.716 268.149 C 173.339 268.643,172.930 269.242,172.807 269.480 C 172.684 269.718,172.094 270.626,171.497 271.498 C 170.899 272.370,170.210 273.421,169.965 273.833 C 169.721 274.246,169.179 275.033,168.762 275.583 C 168.345 276.133,167.888 276.808,167.748 277.083 C 167.495 277.579,166.085 279.689,163.835 282.938 C 163.193 283.866,162.667 284.668,162.667 284.719 C 162.667 284.770,162.159 285.548,161.538 286.448 C 160.918 287.347,160.210 288.421,159.965 288.833 C 159.721 289.246,159.180 290.033,158.763 290.583 C 158.346 291.133,157.910 291.771,157.794 292.000 C 157.677 292.229,157.095 293.120,156.500 293.979 C 155.904 294.839,155.319 295.720,155.199 295.938 C 154.840 296.592,154.858 296.612,152.359 292.751 C 151.588 291.560,150.742 290.324,150.479 290.005 C 150.215 289.685,150.000 289.334,150.000 289.225 C 150.000 289.115,149.723 288.664,149.385 288.221 C 149.048 287.779,148.214 286.554,147.533 285.500 C 146.852 284.446,146.003 283.201,145.647 282.735 C 145.291 282.268,145.000 281.805,145.000 281.706 C 145.000 281.607,144.723 281.164,144.385 280.721 C 144.048 280.279,143.214 279.054,142.533 278.000 C 141.852 276.946,141.003 275.701,140.647 275.235 C 140.291 274.768,140.000 274.305,140.000 274.206 C 140.000 274.107,139.724 273.664,139.386 273.222 C 139.049 272.780,138.139 271.443,137.364 270.251 C 136.590 269.059,135.787 267.882,135.582 267.636 C 135.376 267.391,135.050 266.866,134.857 266.470 C 134.664 266.074,134.311 265.525,134.072 265.250 C 133.834 264.975,133.074 263.850,132.383 262.750 C 131.693 261.650,130.947 260.480,130.726 260.150 C 130.504 259.821,130.182 259.183,130.008 258.734 C 129.835 258.284,129.430 257.235,129.108 256.402 C 126.117 248.674,127.222 238.662,131.777 232.229 C 132.175 231.667,132.500 231.133,132.500 231.042 C 132.500 230.891,133.328 229.902,134.978 228.082 C 135.747 227.234,138.015 225.196,138.472 224.942 C 138.663 224.837,139.443 224.323,140.206 223.801 C 140.968 223.280,142.190 222.596,142.921 222.283 C 143.652 221.970,144.587 221.561,145.000 221.375 C 146.454 220.717,148.572 220.154,150.484 219.915 C 151.547 219.783,152.679 219.642,153.000 219.602 C 153.994 219.479,157.152 219.638,159.312 219.920 " stroke="none" fill="#158e12" fill-rule="evenodd"></path><path d="" stroke="none" fill="#158e12" fill-rule="evenodd"></path><path d="" stroke="none" fill="#158e12" fill-rule="evenodd"></path><path d="" stroke="none" fill="#158e12" fill-rule="evenodd"></path><path d="" stroke="none" fill="#158e12" fill-rule="evenodd"></path></g>
<g id="svgg"><path d="M67.833 12.947 C 67.604 12.985,66.742 13.126,65.917 13.261 C 47.024 16.359,37.087 38.967,47.444 55.289 C 48.203 56.485,52.909 63.563,53.846 64.917 C 54.227 65.467,58.130 71.279,62.521 77.833 C 71.494 91.230,70.971 90.476,71.132 90.244 C 71.833 89.234,94.537 55.097,94.796 54.662 C 99.359 47.028,99.851 38.564,96.278 29.159 C 93.213 21.092,83.575 13.962,74.431 12.999 C 72.957 12.843,68.670 12.810,67.833 12.947 M73.781 33.084 C 79.280 35.795,78.094 43.902,72.039 44.994 C 70.087 45.346,67.841 44.610,66.495 43.178 C 61.620 37.988,67.422 29.948,73.781 33.084 M324.305 110.007 C 306.621 113.122,296.584 131.709,303.599 148.351 C 304.583 150.685,304.818 151.057,313.883 164.667 C 324.647 180.826,328.751 186.902,328.943 186.959 C 329.293 187.065,352.749 151.706,353.848 149.417 C 363.595 129.110,346.362 106.121,324.305 110.007 M331.532 129.716 C 335.709 131.767,336.628 137.089,333.319 140.065 C 329.229 143.742,323.014 141.236,322.698 135.784 C 322.432 131.185,327.473 127.723,331.532 129.716 M150.750 219.576 C 133.478 222.492,123.230 239.235,128.608 255.750 C 129.456 258.354,130.709 260.657,133.960 265.583 C 142.071 277.875,154.600 296.573,154.750 296.611 C 154.958 296.663,154.125 297.888,167.470 277.917 C 179.386 260.082,180.003 259.071,181.135 255.500 C 186.155 239.672,176.747 223.435,160.500 219.888 C 158.118 219.368,152.960 219.203,150.750 219.576 M156.952 239.188 C 160.512 240.496,162.178 244.529,160.537 247.867 C 158.181 252.655,151.551 252.665,149.152 247.884 C 146.668 242.932,151.743 237.274,156.952 239.188 " stroke="none" fill="#db2626" fill-rule="evenodd"></path><path d="" stroke="none" fill="#db2626" fill-rule="evenodd"></path><path d="" stroke="none" fill="#db2626" fill-rule="evenodd"></path><path d="" stroke="none" fill="#db2626" fill-rule="evenodd"></path><path d="" stroke="none" fill="#db2626" fill-rule="evenodd"></path></g>
<g id="svgg"><path d="M188.583 0.175 C 185.207 0.285,181.734 0.561,178.167 1.002 C 175.121 1.379,169.354 2.201,168.167 2.428 C 167.479 2.559,166.654 2.667,166.333 2.668 C 165.728 2.669,159.945 3.822,156.750 4.580 C 155.742 4.819,154.654 5.055,154.333 5.105 C 153.438 5.244,151.107 5.813,149.167 6.366 C 148.204 6.640,146.892 7.014,146.250 7.196 C 145.608 7.378,144.783 7.586,144.417 7.658 C 143.445 7.848,141.061 8.567,138.573 9.420 C 137.376 9.831,136.287 10.167,136.154 10.167 C 136.020 10.167,134.524 10.696,132.830 11.344 C 131.136 11.991,129.459 12.594,129.103 12.683 C 128.278 12.889,127.000 13.469,127.000 13.637 C 127.000 13.707,127.652 14.587,128.449 15.591 C 130.169 17.757,129.926 17.449,131.152 19.025 C 131.698 19.726,132.229 20.352,132.334 20.417 C 132.438 20.481,132.574 20.670,132.637 20.835 C 132.699 21.001,133.267 21.742,133.900 22.481 C 134.532 23.221,135.132 23.967,135.233 24.138 C 135.334 24.310,136.190 25.418,137.135 26.600 C 138.080 27.783,139.149 29.125,139.511 29.583 C 141.428 32.012,141.870 32.500,142.147 32.500 C 142.314 32.500,145.180 32.983,148.516 33.573 C 151.853 34.162,155.258 34.734,156.083 34.842 C 156.908 34.950,159.683 35.401,162.250 35.845 C 168.177 36.868,171.561 37.425,173.250 37.655 C 173.983 37.755,175.915 38.075,177.542 38.366 L 180.500 38.896 180.500 51.698 L 180.500 64.500 165.199 64.500 L 149.898 64.500 148.860 68.792 C 148.289 71.152,147.755 73.496,147.674 74.000 C 147.592 74.504,147.035 76.951,146.435 79.437 C 145.835 81.923,145.296 84.286,145.238 84.687 C 145.180 85.088,144.658 87.404,144.080 89.833 C 143.501 92.263,142.940 94.737,142.833 95.333 C 142.657 96.309,142.262 98.111,142.056 98.875 C 141.947 99.280,142.259 99.239,142.886 98.766 C 143.178 98.546,144.279 97.897,145.333 97.325 C 146.387 96.752,147.362 96.190,147.500 96.076 C 148.108 95.574,158.773 90.353,160.135 89.890 C 160.563 89.745,161.534 89.336,162.293 88.980 C 163.052 88.624,163.707 88.333,163.748 88.333 C 163.790 88.333,164.233 88.146,164.734 87.917 C 165.235 87.688,165.739 87.500,165.854 87.500 C 165.969 87.500,167.283 87.014,168.775 86.419 C 170.266 85.825,172.033 85.189,172.702 85.006 C 173.370 84.823,175.048 84.306,176.430 83.858 C 177.813 83.409,179.501 82.910,180.180 82.749 C 180.860 82.589,182.429 82.203,183.667 81.893 C 187.291 80.983,191.713 80.005,192.212 80.002 C 192.465 80.001,193.890 79.778,195.378 79.507 C 200.523 78.571,209.165 77.500,211.582 77.500 L 212.454 77.500 212.559 78.375 C 212.616 78.856,212.664 79.606,212.665 80.040 C 212.666 80.475,213.191 85.388,213.833 90.957 C 214.474 96.526,214.999 101.184,215.000 101.308 C 215.000 101.465,215.209 101.409,215.708 101.117 C 216.098 100.889,217.054 100.364,217.833 99.950 C 218.612 99.536,219.865 98.834,220.618 98.390 C 221.370 97.947,222.669 97.208,223.506 96.750 C 225.594 95.605,226.447 95.130,228.648 93.885 C 229.692 93.294,231.154 92.489,231.898 92.095 C 232.642 91.701,233.625 91.144,234.083 90.857 C 234.542 90.571,235.238 90.187,235.631 90.005 C 236.025 89.822,236.887 89.346,237.548 88.946 C 238.209 88.546,239.499 87.824,240.415 87.340 C 241.331 86.857,242.260 86.320,242.479 86.147 C 242.861 85.847,243.351 85.833,253.505 85.833 L 264.132 85.833 264.670 86.708 C 264.966 87.190,265.761 88.413,266.437 89.427 C 267.113 90.441,267.667 91.317,267.667 91.375 C 267.667 91.432,268.229 92.314,268.917 93.333 C 269.604 94.353,270.171 95.239,270.177 95.302 C 270.183 95.365,270.554 95.942,271.002 96.583 C 271.449 97.225,272.020 98.087,272.270 98.500 C 272.520 98.912,273.218 99.994,273.821 100.904 C 274.424 101.814,275.106 102.902,275.338 103.321 C 275.569 103.740,276.188 104.693,276.713 105.439 C 277.237 106.184,277.667 106.848,277.667 106.914 C 277.667 106.980,278.229 107.854,278.917 108.855 C 279.604 109.856,280.167 110.735,280.167 110.809 C 280.167 110.883,280.605 111.574,281.140 112.346 C 281.675 113.118,282.435 114.295,282.827 114.961 C 283.220 115.628,283.598 116.207,283.666 116.250 C 283.874 116.378,288.353 117.362,289.333 117.494 C 289.837 117.562,292.650 118.145,295.583 118.788 C 298.517 119.432,301.592 120.085,302.417 120.239 C 303.242 120.394,304.572 120.675,305.374 120.864 L 306.830 121.207 307.160 120.812 C 307.341 120.595,307.491 120.355,307.494 120.279 C 307.508 119.948,312.327 115.361,313.083 114.960 C 313.267 114.862,314.034 114.374,314.788 113.874 C 321.417 109.479,331.139 108.664,339.092 111.837 C 341.222 112.687,342.513 113.283,342.667 113.490 C 342.712 113.551,343.341 113.972,344.064 114.426 C 346.553 115.986,349.244 118.543,351.162 121.168 C 351.664 121.855,352.128 122.456,352.194 122.503 C 352.259 122.551,352.461 122.937,352.642 123.360 C 353.101 124.431,353.089 124.430,355.131 123.509 C 356.136 123.055,357.362 122.537,357.854 122.357 C 358.347 122.177,359.754 121.573,360.982 121.015 C 362.209 120.457,363.290 120.000,363.383 120.000 C 363.476 120.000,364.235 119.689,365.068 119.308 C 365.901 118.927,367.133 118.365,367.804 118.058 C 368.475 117.751,369.082 117.500,369.152 117.500 C 369.222 117.500,370.539 116.938,372.078 116.250 C 373.617 115.563,374.939 115.000,375.015 115.000 C 375.205 115.000,379.883 112.847,380.048 112.684 C 380.120 112.613,379.576 111.349,378.839 109.876 C 378.103 108.402,377.500 107.146,377.500 107.085 C 377.500 107.023,377.228 106.510,376.895 105.945 C 376.563 105.379,375.729 103.867,375.042 102.583 C 374.355 101.300,373.742 100.212,373.680 100.167 C 373.534 100.060,372.500 98.361,372.500 98.228 C 372.500 98.083,370.992 95.642,370.659 95.250 C 370.504 95.067,370.179 94.515,369.936 94.024 C 369.694 93.533,369.339 92.933,369.147 92.691 C 368.956 92.448,368.113 91.208,367.274 89.934 C 366.436 88.661,365.412 87.106,365.000 86.479 C 363.747 84.575,360.734 80.437,360.356 80.099 C 360.160 79.925,360.000 79.694,360.000 79.587 C 360.000 79.480,359.440 78.722,358.755 77.904 C 358.070 77.086,357.507 76.340,357.505 76.245 C 357.502 76.151,357.257 75.814,356.959 75.495 C 356.662 75.177,355.778 74.129,354.997 73.167 L 353.575 71.417 330.450 71.374 L 307.325 71.332 306.287 70.515 C 305.717 70.066,304.800 69.280,304.250 68.768 C 303.700 68.257,303.190 67.837,303.117 67.836 C 303.044 67.834,302.819 67.660,302.617 67.447 C 302.233 67.044,294.840 60.713,293.936 60.015 C 293.651 59.794,293.042 59.264,292.583 58.837 C 292.125 58.411,291.487 57.871,291.167 57.637 C 290.846 57.403,290.133 56.789,289.584 56.272 C 289.034 55.756,288.524 55.333,288.452 55.333 C 288.379 55.333,287.811 54.865,287.189 54.292 C 286.567 53.719,285.587 52.845,285.011 52.349 L 283.964 51.448 282.024 52.084 C 279.775 52.820,274.165 54.694,270.083 56.072 C 263.939 58.146,264.910 58.093,257.417 56.763 C 255.125 56.356,251.975 55.825,250.417 55.581 C 248.858 55.338,245.221 54.735,242.333 54.241 C 239.446 53.748,236.146 53.195,235.000 53.013 C 230.016 52.221,226.308 51.588,226.173 51.504 C 226.023 51.411,226.668 48.679,228.691 40.833 C 229.318 38.404,229.904 36.021,229.995 35.537 C 230.304 33.890,232.374 26.251,232.563 26.065 C 232.745 25.885,235.901 25.201,238.250 24.833 C 238.892 24.733,240.242 24.471,241.250 24.251 C 247.634 22.860,249.387 22.500,249.767 22.500 C 250.002 22.500,252.862 21.938,256.122 21.250 C 259.382 20.563,262.226 20.000,262.442 20.000 C 262.658 20.000,265.516 19.447,268.792 18.771 C 272.069 18.096,275.856 17.333,277.208 17.076 C 278.735 16.786,279.667 16.534,279.667 16.411 C 279.667 16.231,277.396 15.167,277.013 15.167 C 276.924 15.167,276.266 14.899,275.551 14.572 C 273.361 13.571,271.446 12.793,270.833 12.655 C 270.512 12.583,268.875 11.994,267.194 11.346 C 265.514 10.697,264.026 10.167,263.887 10.167 C 263.749 10.167,262.537 9.796,261.193 9.344 C 258.467 8.425,256.171 7.738,255.417 7.613 C 254.904 7.528,253.661 7.187,251.167 6.447 C 249.199 5.864,247.086 5.338,246.000 5.160 C 245.496 5.078,244.446 4.856,243.667 4.667 C 241.103 4.046,234.260 2.668,233.738 2.667 C 233.456 2.667,232.144 2.485,230.821 2.263 C 227.859 1.766,221.488 0.934,217.917 0.578 C 212.669 0.055,198.265 -0.143,188.583 0.175 M132.333 105.373 C 131.829 105.655,130.905 106.218,130.280 106.623 C 129.655 107.028,128.905 107.465,128.613 107.594 C 128.322 107.723,127.371 108.280,126.500 108.831 C 125.629 109.383,124.654 109.955,124.333 110.103 C 124.013 110.251,122.906 110.888,121.875 111.519 C 120.843 112.150,119.950 112.667,119.891 112.667 C 119.831 112.667,118.865 113.229,117.745 113.917 C 116.624 114.604,115.663 115.167,115.610 115.167 C 115.557 115.167,114.816 115.591,113.965 116.109 C 113.113 116.627,111.854 117.364,111.167 117.747 C 110.479 118.129,109.440 118.737,108.856 119.096 C 108.273 119.456,107.265 120.033,106.615 120.379 C 105.965 120.725,105.318 121.107,105.175 121.228 C 105.033 121.349,104.495 121.685,103.980 121.974 L 103.043 122.500 86.938 122.500 L 70.833 122.500 70.833 132.337 L 70.833 142.174 71.292 142.353 C 71.544 142.452,72.462 142.897,73.333 143.343 C 74.204 143.788,75.292 144.335,75.750 144.559 C 76.208 144.782,77.333 145.344,78.250 145.809 C 79.167 146.273,80.329 146.854,80.833 147.101 C 81.337 147.347,82.219 147.781,82.791 148.066 L 83.833 148.583 83.833 158.125 L 83.833 167.667 83.349 167.667 C 82.888 167.667,76.878 168.518,71.000 169.415 C 69.487 169.646,67.462 169.918,66.500 170.019 C 64.630 170.215,57.872 171.140,57.567 171.242 C 57.355 171.313,55.985 169.942,55.107 168.779 C 54.773 168.336,54.261 167.736,53.970 167.445 C 53.679 167.155,53.135 166.535,52.762 166.069 C 51.765 164.824,48.166 160.624,47.847 160.333 C 47.696 160.196,47.456 159.915,47.313 159.708 C 47.169 159.502,46.632 158.865,46.119 158.292 C 45.606 157.719,44.939 156.937,44.635 156.554 C 44.332 156.171,43.725 155.458,43.287 154.970 C 41.139 152.578,40.369 151.685,39.833 150.968 C 38.970 149.812,39.145 149.849,26.667 148.170 C 21.510 147.476,8.558 145.676,7.899 145.562 C 7.414 145.478,7.370 145.513,7.209 146.111 C 7.115 146.462,6.652 148.137,6.180 149.833 C 5.708 151.529,5.252 153.367,5.166 153.917 C 5.081 154.467,4.859 155.554,4.673 156.333 C 3.916 159.513,2.813 164.978,2.675 166.239 C 2.593 166.978,2.333 168.783,2.097 170.250 C -0.803 188.223,-0.803 211.781,2.097 229.750 C 2.333 231.217,2.589 232.979,2.665 233.667 C 2.864 235.465,3.672 239.494,4.671 243.667 C 4.858 244.446,5.075 245.496,5.155 246.000 C 5.345 247.198,5.847 249.150,6.783 252.333 C 7.201 253.754,7.577 255.142,7.619 255.417 C 7.730 256.146,8.405 258.407,9.344 261.193 C 9.796 262.537,10.167 263.745,10.167 263.878 C 10.167 264.155,12.079 269.347,12.433 270.032 C 12.562 270.280,12.667 270.632,12.667 270.814 C 12.667 270.996,13.084 272.106,13.594 273.281 C 14.104 274.456,14.809 276.167,15.160 277.083 C 15.512 278.000,16.219 279.637,16.733 280.722 C 17.246 281.806,17.667 282.768,17.667 282.858 C 17.667 282.949,18.221 284.162,18.899 285.553 C 19.577 286.945,20.227 288.335,20.343 288.642 C 20.459 288.949,20.721 289.445,20.924 289.745 C 21.296 290.294,22.284 292.203,22.996 293.750 C 23.207 294.208,23.622 294.996,23.919 295.500 C 24.215 296.004,24.848 297.161,25.326 298.070 C 25.803 298.980,26.365 299.955,26.574 300.237 C 26.783 300.519,27.238 301.275,27.584 301.917 C 28.318 303.276,29.319 304.879,29.512 305.003 C 29.585 305.051,29.874 305.551,30.154 306.114 C 30.433 306.677,30.759 307.238,30.877 307.361 C 30.995 307.483,31.750 308.607,32.554 309.858 C 33.358 311.109,34.194 312.341,34.413 312.596 C 34.632 312.850,34.971 313.370,35.167 313.750 C 35.362 314.130,35.713 314.661,35.946 314.929 C 36.179 315.197,37.010 316.336,37.792 317.460 C 38.575 318.584,39.381 319.671,39.584 319.877 C 39.788 320.082,40.069 320.475,40.211 320.750 C 40.353 321.025,40.857 321.693,41.332 322.235 C 41.807 322.776,42.379 323.510,42.603 323.865 C 42.828 324.221,43.178 324.675,43.381 324.876 C 43.584 325.076,44.106 325.693,44.540 326.245 C 44.975 326.798,45.391 327.325,45.464 327.417 C 45.851 327.902,48.685 331.242,49.565 332.249 C 50.125 332.890,51.052 333.880,51.625 334.449 C 52.198 335.018,52.667 335.556,52.667 335.646 C 52.667 336.088,66.563 349.655,67.333 349.965 C 67.471 350.020,67.719 350.237,67.884 350.445 C 68.209 350.857,71.483 353.655,73.500 355.245 C 74.188 355.787,75.040 356.516,75.395 356.865 C 75.749 357.214,76.124 357.502,76.228 357.505 C 76.332 357.507,77.086 358.070,77.904 358.755 C 78.722 359.440,79.480 360.000,79.587 360.000 C 79.694 360.000,79.925 360.158,80.099 360.352 C 80.445 360.734,84.642 363.793,86.478 365.000 C 91.210 368.112,92.303 368.841,92.691 369.147 C 92.933 369.339,93.533 369.694,94.024 369.936 C 94.515 370.179,95.067 370.504,95.250 370.659 C 95.622 370.974,97.561 372.157,99.072 372.992 C 99.616 373.292,100.148 373.623,100.255 373.727 C 100.619 374.083,102.643 375.079,102.761 374.961 C 102.925 374.797,102.663 373.835,101.251 369.417 C 100.578 367.308,99.447 363.746,98.740 361.500 C 98.032 359.254,96.897 355.654,96.216 353.500 C 95.535 351.346,94.415 347.783,93.726 345.583 C 92.386 341.306,90.662 335.864,90.554 335.574 C 90.518 335.477,90.652 335.214,90.851 334.990 C 91.051 334.766,91.775 333.721,92.460 332.667 C 93.145 331.612,93.997 330.368,94.353 329.901 C 94.709 329.434,95.000 328.991,95.000 328.916 C 95.000 328.841,95.436 328.173,95.970 327.432 C 96.503 326.690,97.450 325.296,98.074 324.333 C 98.699 323.371,99.267 322.546,99.336 322.500 C 99.406 322.454,99.735 321.952,100.067 321.384 C 100.400 320.817,100.768 320.254,100.887 320.134 C 101.071 319.948,102.047 318.511,102.583 317.637 C 102.675 317.488,103.256 316.646,103.875 315.766 C 104.494 314.887,105.000 314.129,105.000 314.082 C 105.000 314.035,105.506 313.287,106.125 312.419 C 107.310 310.757,109.179 307.967,110.178 306.368 C 110.504 305.845,111.161 304.900,111.636 304.268 C 112.111 303.636,112.500 303.026,112.500 302.913 C 112.500 302.800,112.596 302.627,112.714 302.530 C 112.832 302.432,113.283 301.832,113.717 301.198 L 114.506 300.043 113.657 297.647 C 113.190 296.328,112.712 294.875,112.594 294.417 C 112.476 293.958,111.844 292.037,111.190 290.146 C 110.535 288.255,110.000 286.626,110.000 286.525 C 110.000 286.423,109.437 284.737,108.750 282.777 C 108.062 280.817,107.500 279.051,107.500 278.853 C 107.500 278.406,107.176 278.276,104.953 277.828 C 104.016 277.639,101.541 277.033,99.453 276.480 C 97.365 275.927,94.965 275.333,94.120 275.161 C 93.275 274.988,90.788 274.356,88.594 273.757 C 86.401 273.157,84.488 272.669,84.344 272.671 C 84.201 272.673,82.877 272.361,81.403 271.977 L 78.723 271.279 78.134 268.931 C 77.253 265.419,76.069 260.681,75.487 258.333 C 75.202 257.188,74.477 254.338,73.874 252.000 C 73.272 249.662,72.707 247.375,72.620 246.917 C 72.532 246.458,72.275 245.332,72.049 244.413 L 71.636 242.744 70.777 242.472 C 70.304 242.323,69.317 241.960,68.583 241.666 C 67.850 241.372,66.275 240.798,65.083 240.390 C 63.892 239.982,62.054 239.308,61.000 238.892 C 59.946 238.476,58.221 237.849,57.167 237.499 C 56.112 237.148,54.500 236.570,53.583 236.215 L 51.917 235.568 51.876 217.826 L 51.835 200.083 53.334 199.250 C 54.159 198.792,55.415 198.111,56.125 197.737 C 56.835 197.364,58.214 196.595,59.190 196.029 C 60.165 195.463,61.011 195.000,61.069 195.000 C 61.216 195.000,64.687 192.994,65.013 192.720 C 65.158 192.599,65.383 192.497,65.513 192.494 C 65.643 192.490,66.162 192.231,66.667 191.918 C 67.171 191.605,68.371 190.924,69.333 190.405 C 70.296 189.885,71.683 189.105,72.417 188.671 C 73.689 187.918,75.696 186.804,78.728 185.167 C 79.492 184.754,80.447 184.237,80.850 184.018 C 81.253 183.799,81.979 183.368,82.462 183.060 C 82.945 182.752,83.415 182.500,83.508 182.500 C 83.698 182.500,87.110 180.558,87.513 180.220 C 87.658 180.099,87.875 180.000,87.995 180.000 C 88.116 180.000,88.823 179.635,89.566 179.189 C 90.309 178.743,91.592 178.019,92.417 177.580 C 93.242 177.141,94.566 176.399,95.359 175.932 C 96.729 175.125,98.119 174.353,101.232 172.667 C 101.993 172.254,102.947 171.737,103.350 171.518 C 103.753 171.299,104.479 170.868,104.962 170.560 C 105.445 170.252,105.915 170.000,106.007 170.000 C 106.212 170.000,108.814 168.499,108.928 168.316 C 108.973 168.243,108.864 167.749,108.686 167.217 C 105.785 158.540,106.144 146.107,109.568 136.667 C 109.784 136.071,110.055 135.283,110.170 134.917 C 110.285 134.550,110.754 133.462,111.211 132.500 C 111.669 131.537,112.286 130.225,112.583 129.583 C 112.880 128.942,113.545 127.749,114.061 126.933 C 114.578 126.117,115.000 125.354,115.000 125.238 C 115.000 125.123,115.057 125.003,115.126 124.972 C 115.195 124.942,115.576 124.414,115.973 123.801 C 116.369 123.187,116.806 122.592,116.943 122.479 C 117.079 122.365,117.330 122.005,117.499 121.678 C 117.669 121.351,118.196 120.633,118.670 120.083 C 119.144 119.533,119.705 118.821,119.916 118.500 C 120.127 118.179,120.793 117.392,121.396 116.750 C 121.999 116.108,122.494 115.531,122.496 115.467 C 122.498 115.402,122.970 114.877,123.544 114.300 C 124.119 113.722,124.745 113.063,124.935 112.833 C 125.248 112.458,126.176 111.587,129.704 108.359 C 130.321 107.795,130.883 107.333,130.954 107.332 C 131.025 107.331,131.608 106.845,132.250 106.252 C 132.892 105.659,133.473 105.173,133.542 105.170 C 133.610 105.168,133.667 105.092,133.667 105.000 C 133.667 104.728,133.304 104.829,132.333 105.373 M202.583 106.417 C 200.658 106.722,198.273 107.128,197.283 107.319 C 196.293 107.510,195.243 107.668,194.950 107.669 C 194.375 107.672,189.970 108.641,186.333 109.565 C 185.096 109.879,183.671 110.230,183.167 110.343 C 182.662 110.457,181.162 110.919,179.833 111.369 C 178.504 111.820,177.042 112.304,176.583 112.446 C 175.359 112.824,173.534 113.494,172.583 113.914 C 172.125 114.116,171.391 114.417,170.953 114.582 C 170.514 114.748,170.116 114.947,170.068 115.025 C 170.020 115.103,169.804 115.167,169.588 115.167 C 169.372 115.167,168.105 115.720,166.774 116.396 C 165.443 117.072,164.154 117.676,163.910 117.737 C 163.469 117.848,161.175 119.092,160.277 119.707 C 160.017 119.886,159.593 120.092,159.335 120.166 C 158.635 120.367,153.473 123.737,152.506 124.624 C 152.182 124.922,151.832 125.165,151.730 125.166 C 151.361 125.167,145.171 130.934,145.164 131.282 C 145.163 131.356,144.743 131.867,144.232 132.417 C 143.720 132.967,143.109 133.754,142.873 134.167 C 142.637 134.579,142.319 135.067,142.166 135.250 C 141.754 135.743,140.167 138.455,140.167 138.666 C 140.167 138.765,139.943 139.325,139.670 139.909 C 136.481 146.731,136.562 154.536,139.906 162.417 C 140.710 164.312,140.919 164.774,141.058 164.962 C 141.264 165.242,142.667 167.705,142.667 167.788 C 142.667 167.899,144.054 169.905,144.309 170.164 C 144.444 170.300,144.800 170.787,145.101 171.247 C 145.402 171.707,145.961 172.383,146.342 172.750 C 146.724 173.117,147.304 173.740,147.630 174.136 C 147.957 174.531,148.417 174.960,148.654 175.090 C 148.890 175.219,149.528 175.737,150.072 176.241 C 150.615 176.746,151.403 177.319,151.822 177.515 C 152.241 177.711,152.621 177.932,152.667 178.005 C 152.819 178.244,156.279 180.000,156.602 180.001 C 156.775 180.002,157.114 180.105,157.354 180.230 C 158.833 181.002,163.924 182.277,166.417 182.500 C 167.425 182.590,169.037 182.742,170.000 182.838 C 172.314 183.068,182.631 183.070,186.417 182.841 C 188.067 182.741,190.917 182.588,192.750 182.501 C 194.583 182.415,198.633 182.080,201.750 181.757 C 209.272 180.980,210.488 180.865,213.333 180.668 C 220.970 180.138,228.504 180.020,234.145 180.341 C 235.829 180.437,237.237 180.485,237.273 180.449 C 237.340 180.382,234.756 178.129,233.669 177.307 C 233.347 177.063,232.671 176.482,232.167 176.016 C 231.662 175.549,231.185 175.168,231.105 175.167 C 231.025 175.167,230.478 174.716,229.890 174.166 C 229.301 173.616,228.617 173.039,228.368 172.883 C 228.120 172.728,227.542 172.259,227.083 171.841 C 226.625 171.424,225.206 170.220,223.929 169.166 C 222.653 168.112,221.078 166.800,220.429 166.250 C 219.781 165.700,218.987 165.049,218.667 164.803 C 218.346 164.557,217.671 163.977,217.167 163.512 C 216.662 163.048,216.196 162.668,216.129 162.667 C 216.063 162.667,215.390 162.104,214.634 161.417 C 213.878 160.729,213.168 160.167,213.056 160.167 C 212.944 160.167,212.754 160.032,212.634 159.868 C 212.515 159.704,211.104 158.471,209.499 157.129 L 206.581 154.688 205.795 149.219 C 205.363 146.211,204.933 143.112,204.840 142.333 C 204.747 141.554,204.187 137.654,203.595 133.667 C 203.003 129.679,202.405 125.517,202.267 124.417 C 202.128 123.317,201.599 119.664,201.091 116.300 C 200.582 112.936,200.167 110.114,200.167 110.029 C 200.167 109.865,203.247 108.027,205.382 106.917 C 207.708 105.707,207.402 105.653,202.583 106.417 M281.750 174.708 C 277.847 176.031,272.954 177.663,271.750 178.043 C 271.017 178.274,269.254 178.858,267.833 179.339 C 262.169 181.261,258.012 182.645,256.625 183.072 C 254.734 183.654,254.781 183.796,257.125 184.583 C 258.767 185.135,264.897 187.987,265.167 188.324 C 265.212 188.382,265.850 188.796,266.583 189.246 C 268.156 190.209,270.119 191.637,270.567 192.142 C 270.742 192.339,270.979 192.500,271.094 192.500 C 271.379 192.500,276.815 197.961,277.426 198.862 C 277.696 199.259,278.167 199.845,278.472 200.164 C 278.777 200.484,279.693 201.722,280.507 202.914 C 281.321 204.107,282.139 205.271,282.323 205.500 C 282.508 205.729,282.661 206.018,282.663 206.142 C 282.665 206.267,282.903 206.717,283.192 207.142 C 283.979 208.303,285.167 210.338,285.167 210.526 C 285.167 210.617,285.460 211.193,285.818 211.806 C 286.523 213.014,287.560 215.165,287.758 215.832 C 287.826 216.060,288.089 216.698,288.342 217.249 C 288.959 218.590,289.951 221.150,290.088 221.759 C 290.329 222.821,290.906 224.500,291.031 224.500 C 291.103 224.500,292.215 222.381,293.501 219.792 C 294.787 217.202,296.216 214.333,296.677 213.417 C 297.137 212.500,297.739 211.300,298.014 210.750 C 298.289 210.200,298.842 209.112,299.243 208.333 C 299.644 207.554,300.730 205.370,301.656 203.480 L 303.340 200.044 302.739 199.147 C 302.409 198.654,301.654 197.612,301.063 196.833 C 298.540 193.512,297.727 192.422,297.349 191.853 C 297.128 191.521,296.509 190.718,295.974 190.069 C 295.438 189.419,295.000 188.831,295.000 188.762 C 295.000 188.694,294.419 187.906,293.708 187.012 C 292.442 185.419,290.720 183.125,289.772 181.768 C 289.508 181.391,288.890 180.587,288.397 179.981 C 287.903 179.375,287.500 178.824,287.500 178.756 C 287.500 178.689,287.063 178.090,286.529 177.426 C 285.995 176.762,285.234 175.757,284.838 175.193 C 283.986 173.977,283.932 173.969,281.750 174.708 M217.750 209.935 C 217.200 209.970,214.575 210.073,211.917 210.164 C 206.299 210.357,196.167 211.226,196.167 211.515 C 196.167 211.581,196.434 211.955,196.760 212.346 C 197.087 212.736,197.471 213.282,197.614 213.559 C 197.757 213.836,198.302 214.630,198.825 215.323 C 199.348 216.016,200.200 217.221,200.720 218.000 C 201.239 218.779,201.860 219.642,202.099 219.917 C 202.339 220.192,202.595 220.572,202.668 220.761 C 202.742 220.951,203.171 221.588,203.622 222.178 C 204.073 222.768,204.802 223.799,205.243 224.469 C 206.260 226.017,206.841 226.355,210.595 227.589 C 211.243 227.803,212.875 228.432,214.222 228.988 C 215.569 229.545,216.764 230.001,216.877 230.002 C 216.991 230.002,217.908 230.345,218.917 230.763 C 221.067 231.654,221.580 231.853,223.583 232.575 C 224.408 232.873,226.133 233.533,227.417 234.042 C 228.700 234.552,230.294 235.170,230.958 235.416 L 232.167 235.863 232.167 250.154 L 232.167 264.445 231.483 265.181 C 231.107 265.585,230.571 266.254,230.293 266.667 C 230.015 267.079,229.703 267.492,229.600 267.583 C 229.411 267.752,228.881 268.403,226.333 271.591 C 225.554 272.566,224.542 273.815,224.083 274.367 C 223.625 274.919,223.017 275.701,222.732 276.105 C 222.447 276.509,221.857 277.232,221.419 277.712 C 220.982 278.191,220.438 278.883,220.211 279.250 C 219.983 279.617,219.695 279.999,219.569 280.099 C 219.376 280.254,218.833 280.918,217.404 282.750 C 216.894 283.405,214.903 285.892,214.125 286.847 C 213.690 287.381,213.333 287.868,213.333 287.929 C 213.333 288.261,217.365 286.976,219.917 285.830 C 220.283 285.665,221.033 285.378,221.583 285.191 C 222.843 284.763,224.296 284.161,225.583 283.535 C 226.954 282.869,227.658 282.563,228.271 282.366 C 228.558 282.274,229.714 281.704,230.841 281.099 C 231.969 280.495,232.955 280.000,233.034 280.000 C 233.235 280.000,234.864 279.173,235.167 278.918 C 235.304 278.802,236.167 278.314,237.083 277.833 C 238.000 277.352,239.387 276.531,240.167 276.009 C 240.946 275.486,241.696 275.017,241.833 274.967 C 241.971 274.917,242.745 274.397,243.553 273.813 C 244.361 273.228,245.148 272.675,245.302 272.583 C 245.833 272.268,247.584 270.865,247.987 270.433 C 248.210 270.195,248.477 270.000,248.581 270.000 C 248.685 270.000,249.376 269.419,250.116 268.708 C 250.856 267.998,251.695 267.242,251.981 267.029 C 252.266 266.816,252.500 266.541,252.500 266.419 C 252.500 266.297,252.894 265.849,253.375 265.423 C 253.856 264.998,254.550 264.248,254.917 263.758 C 255.283 263.268,255.940 262.428,256.375 261.892 C 256.811 261.355,257.284 260.692,257.427 260.417 C 257.570 260.142,258.058 259.354,258.511 258.667 C 259.305 257.460,259.503 257.087,260.503 254.917 C 263.764 247.836,263.995 239.237,261.123 231.924 C 260.764 231.011,260.365 230.113,260.235 229.929 C 260.106 229.744,260.000 229.440,260.000 229.254 C 260.000 228.925,258.210 225.683,257.735 225.154 C 257.606 225.009,257.500 224.797,257.500 224.684 C 257.500 224.438,256.712 223.271,256.110 222.625 C 255.875 222.373,255.462 221.846,255.192 221.453 C 254.659 220.678,251.771 217.670,251.551 217.661 C 251.477 217.658,250.904 217.214,250.277 216.675 C 249.649 216.136,248.712 215.478,248.193 215.214 C 247.674 214.950,246.500 214.343,245.583 213.866 C 242.012 212.006,235.811 210.470,230.667 210.171 C 227.672 209.997,219.216 209.843,217.750 209.935 M289.843 258.034 C 289.620 258.611,289.257 259.496,289.037 260.000 C 288.817 260.504,288.411 261.442,288.136 262.083 C 287.174 264.325,286.969 264.755,286.507 265.500 C 286.251 265.912,285.693 266.914,285.267 267.725 C 284.841 268.536,284.164 269.661,283.762 270.225 C 283.359 270.789,282.855 271.561,282.640 271.941 C 282.139 272.828,279.060 276.892,278.271 277.709 C 277.939 278.053,277.667 278.402,277.667 278.486 C 277.667 278.569,277.104 279.196,276.417 279.879 C 275.729 280.562,275.167 281.178,275.167 281.247 C 275.167 281.588,267.907 288.389,266.087 289.753 C 264.732 290.768,262.748 292.390,262.694 292.526 C 262.664 292.603,262.551 292.668,262.444 292.670 C 262.337 292.672,261.725 293.081,261.083 293.578 C 260.442 294.076,259.501 294.737,258.994 295.048 C 258.487 295.360,257.735 295.871,257.324 296.185 C 256.913 296.499,255.716 297.273,254.663 297.906 C 253.611 298.540,252.712 299.113,252.666 299.181 C 252.619 299.249,252.094 299.565,251.499 299.883 C 250.904 300.201,249.779 300.843,249.000 301.310 C 248.221 301.777,247.321 302.280,247.000 302.429 C 246.254 302.775,245.813 303.005,243.624 304.194 C 242.639 304.729,241.752 305.167,241.654 305.167 C 241.556 305.167,240.432 305.729,239.156 306.417 C 237.880 307.104,236.738 307.667,236.617 307.667 C 236.496 307.667,235.263 308.229,233.877 308.917 C 232.491 309.604,231.270 310.167,231.164 310.167 C 231.057 310.167,230.484 310.392,229.890 310.667 C 229.296 310.942,228.779 311.167,228.742 311.167 C 228.705 311.167,228.129 311.420,227.462 311.729 C 226.795 312.038,225.650 312.500,224.917 312.755 C 224.183 313.010,223.133 313.421,222.583 313.669 C 222.033 313.916,221.283 314.215,220.917 314.332 C 220.550 314.449,220.043 314.649,219.789 314.778 C 219.536 314.906,219.011 315.077,218.623 315.157 C 218.234 315.238,216.356 315.836,214.449 316.485 C 212.542 317.135,210.872 317.667,210.738 317.667 C 210.604 317.667,209.089 318.069,207.372 318.561 C 200.304 320.585,190.258 322.327,184.521 322.523 L 183.460 322.560 182.240 320.155 C 181.569 318.832,180.516 316.719,179.900 315.458 C 179.284 314.198,178.679 313.167,178.556 313.167 C 178.372 313.167,178.333 315.099,178.333 324.232 C 178.333 334.615,178.315 335.305,178.042 335.415 C 176.523 336.028,172.292 337.557,171.833 337.658 C 171.512 337.729,169.900 338.292,168.250 338.910 C 166.600 339.527,164.970 340.100,164.628 340.183 C 164.286 340.266,162.598 340.847,160.878 341.475 C 159.158 342.103,157.375 342.733,156.917 342.876 C 156.458 343.018,155.258 343.447,154.250 343.830 C 153.242 344.213,151.442 344.851,150.250 345.249 C 149.058 345.647,147.371 346.246,146.500 346.581 C 145.629 346.917,144.542 347.307,144.083 347.448 C 141.702 348.185,141.966 347.938,141.121 350.214 C 140.706 351.334,140.278 352.579,140.170 352.981 C 140.063 353.383,139.456 355.099,138.821 356.795 C 138.186 358.491,137.667 359.972,137.667 360.086 C 137.667 360.201,137.211 361.522,136.653 363.022 C 136.096 364.523,135.524 366.125,135.382 366.583 C 135.240 367.042,134.597 368.879,133.953 370.667 C 133.309 372.454,132.727 374.179,132.660 374.500 C 132.593 374.821,132.004 376.532,131.352 378.303 C 130.700 380.074,130.167 381.619,130.167 381.737 C 130.167 381.856,129.754 383.051,129.250 384.394 C 128.153 387.317,128.168 387.107,129.042 387.350 C 129.431 387.458,131.231 388.099,133.041 388.773 C 134.851 389.448,136.437 390.000,136.566 390.000 C 136.696 390.000,138.366 390.520,140.280 391.157 C 142.193 391.793,144.281 392.427,144.921 392.566 C 145.560 392.706,147.058 393.085,148.250 393.408 C 150.982 394.151,153.937 394.871,156.083 395.318 C 164.338 397.037,166.653 397.495,167.093 397.497 C 167.373 397.499,168.798 397.686,170.259 397.913 C 181.649 399.684,185.103 399.917,200.000 399.917 C 214.817 399.917,218.499 399.669,229.741 397.915 C 231.202 397.687,232.627 397.500,232.907 397.500 C 233.188 397.500,235.404 397.088,237.833 396.584 C 240.262 396.081,243.037 395.506,244.000 395.307 C 244.963 395.108,247.325 394.545,249.250 394.056 C 251.175 393.567,253.387 393.008,254.167 392.815 C 254.946 392.621,257.308 391.909,259.417 391.232 C 261.525 390.554,263.346 390.000,263.463 390.000 C 263.580 390.000,265.155 389.446,266.963 388.770 C 268.771 388.093,270.453 387.492,270.700 387.435 C 270.948 387.378,272.110 386.914,273.283 386.405 C 274.457 385.895,275.979 385.269,276.667 385.013 C 277.354 384.757,278.919 384.087,280.144 383.524 C 281.369 382.961,282.440 382.500,282.524 382.500 C 282.608 382.500,283.817 381.938,285.211 381.250 C 286.604 380.563,287.806 380.000,287.883 380.000 C 287.960 380.000,289.082 379.438,290.377 378.750 C 291.672 378.063,292.781 377.500,292.842 377.500 C 292.904 377.500,293.508 377.191,294.185 376.813 C 294.863 376.435,296.313 375.643,297.408 375.053 C 298.503 374.464,299.816 373.716,300.325 373.393 C 300.834 373.070,302.071 372.323,303.075 371.734 C 304.078 371.145,304.941 370.599,304.991 370.521 C 305.042 370.443,305.512 370.171,306.037 369.915 C 306.561 369.660,307.123 369.330,307.287 369.182 C 307.450 369.034,308.619 368.248,309.885 367.434 C 311.151 366.621,312.288 365.855,312.411 365.732 C 312.534 365.609,313.087 365.243,313.641 364.918 C 314.195 364.594,314.746 364.232,314.866 364.115 C 314.985 363.998,315.721 363.463,316.500 362.926 C 318.390 361.624,319.886 360.482,320.050 360.216 C 320.123 360.097,320.279 360.000,320.396 360.000 C 320.512 360.000,321.278 359.440,322.096 358.755 C 322.914 358.070,323.665 357.507,323.765 357.505 C 323.865 357.502,324.315 357.151,324.765 356.725 C 325.215 356.299,325.996 355.644,326.500 355.268 C 327.004 354.892,327.454 354.542,327.500 354.490 C 327.546 354.437,328.371 353.732,329.333 352.923 C 334.825 348.304,346.167 337.438,346.167 336.795 C 346.167 336.554,345.200 335.807,343.705 334.891 C 343.222 334.596,342.529 334.099,342.165 333.787 C 341.801 333.476,341.222 333.079,340.877 332.904 C 340.532 332.730,340.063 332.427,339.833 332.231 C 339.604 332.035,338.592 331.329,337.583 330.661 C 336.575 329.993,335.220 329.046,334.572 328.557 C 333.924 328.067,333.308 327.667,333.203 327.667 C 333.098 327.667,332.765 327.453,332.464 327.191 C 332.163 326.929,330.979 326.089,329.833 325.323 C 328.688 324.557,327.375 323.647,326.917 323.299 C 326.458 322.952,326.013 322.668,325.927 322.667 C 325.841 322.667,325.354 322.341,324.844 321.943 C 323.877 321.189,320.557 318.899,318.766 317.750 C 318.194 317.383,317.413 316.827,317.031 316.514 L 316.335 315.946 316.292 299.848 L 316.250 283.750 315.083 283.181 C 311.754 281.559,308.265 279.875,301.333 276.548 C 300.004 275.910,297.754 274.822,296.333 274.131 C 294.912 273.440,292.982 272.515,292.043 272.076 L 290.337 271.277 290.293 264.131 L 290.250 256.985 289.843 258.034 M127.038 386.364 C 127.121 386.614,127.500 386.751,127.500 386.532 C 127.500 386.442,127.381 386.323,127.236 386.268 C 127.074 386.205,126.998 386.243,127.038 386.364 " stroke="none" fill="#293bb1" fill-rule="evenodd"></path><path d="" stroke="none" fill="#293bb1" fill-rule="evenodd"></path><path d="" stroke="none" fill="#293bb1" fill-rule="evenodd"></path><path d="" stroke="none" fill="#293bb1" fill-rule="evenodd"></path><path d="" stroke="none" fill="#293bb1" fill-rule="evenodd"></path></g>
</svg>